<?xml version="1.0" encoding="utf-8"?>
<!-- Generator: Adobe Illustrator 27.5.0, SVG Export Plug-In . SVG Version: 6.00 Build 0)  -->
<svg version="1.1" xmlns="http://www.w3.org/2000/svg" xmlns:xlink="http://www.w3.org/1999/xlink" x="0px" y="0px"
	 viewBox="0 0 500 500" style="enable-background:new 0 0 500 500;" xml:space="preserve">
<g id="Background_Complete">
	<g>
		<rect y="382.398" style="fill:#EBEBEB;" width="500" height="0.25"/>
		<rect x="52.459" y="391.922" style="fill:#EBEBEB;" width="33.122" height="0.25"/>
		<rect x="153.444" y="389.208" style="fill:#EBEBEB;" width="26.389" height="0.25"/>
		<rect x="89.965" y="397.824" style="fill:#EBEBEB;" width="45.923" height="0.25"/>
		<rect x="428.305" y="399.528" style="fill:#EBEBEB;" width="21.597" height="0.25"/>
		<rect x="391.471" y="399.528" style="fill:#EBEBEB;" width="31.973" height="0.25"/>
		<rect x="277.213" y="395.306" style="fill:#EBEBEB;" width="55.12" height="0.25"/>
		<path style="fill:#EBEBEB;" d="M237.014,337.8H43.915c-3.147,0-5.708-2.561-5.708-5.708V60.66c0-3.147,2.561-5.708,5.708-5.708
			h193.099c3.146,0,5.707,2.561,5.707,5.708v271.432C242.721,335.239,240.16,337.8,237.014,337.8z M43.915,55.203
			c-3.01,0-5.458,2.448-5.458,5.458v271.432c0,3.01,2.448,5.458,5.458,5.458h193.099c3.009,0,5.457-2.448,5.457-5.458V60.66
			c0-3.009-2.448-5.458-5.457-5.458H43.915z"/>
		<path style="fill:#EBEBEB;" d="M453.31,337.8H260.212c-3.147,0-5.707-2.561-5.707-5.708V60.66c0-3.147,2.561-5.708,5.707-5.708
			H453.31c3.148,0,5.708,2.561,5.708,5.708v271.432C459.019,335.239,456.458,337.8,453.31,337.8z M260.212,55.203
			c-3.009,0-5.457,2.448-5.457,5.458v271.432c0,3.01,2.448,5.458,5.457,5.458H453.31c3.01,0,5.458-2.448,5.458-5.458V60.66
			c0-3.009-2.448-5.458-5.458-5.458H260.212z"/>
	</g>
	<g>
		<g>
			<g>
				<g>
					<g>
						
							<rect x="86.235" y="81.305" transform="matrix(-1 -1.224647e-16 1.224647e-16 -1 499.1091 304.2997)" style="fill:#E6E6E6;" width="326.639" height="141.689"/>
						
							<rect x="81.735" y="81.305" transform="matrix(-1 -1.224647e-16 1.224647e-16 -1 492.6532 304.2997)" style="fill:#F5F5F5;" width="329.184" height="141.689"/>
						
							<rect x="183.653" y="-4.364" transform="matrix(-1.836970e-16 1 -1 -1.836970e-16 398.4766 -94.1768)" style="fill:#FAFAFA;" width="125.348" height="313.028"/>
						<polygon style="fill:#FFFFFF;" points="222.907,214.824 187.211,89.476 162.299,89.476 197.996,214.824 						"/>
						<polygon style="fill:#FFFFFF;" points="190.934,214.824 155.238,89.476 138.083,89.476 173.78,214.824 						"/>
						<polygon style="fill:#FFFFFF;" points="372.782,214.824 337.086,89.476 312.174,89.476 347.871,214.824 						"/>
						<polygon style="fill:#FFFFFF;" points="340.809,214.824 305.112,89.476 287.958,89.476 323.655,214.824 						"/>
						
							<rect x="91.514" y="147.332" transform="matrix(-1.836970e-16 1 -1 -1.836970e-16 306.338 -2.038)" style="fill:#E6E6E6;" width="125.348" height="9.637"/>
						
							<rect x="282.247" y="147.332" transform="matrix(-1.836970e-16 1 -1 -1.836970e-16 497.071 -192.7711)" style="fill:#E6E6E6;" width="125.348" height="9.637"/>
						
							<rect x="82.874" y="145.614" transform="matrix(-1.836970e-16 1 -1 -1.836970e-16 302.8824 0.5265)" style="fill:#F5F5F5;" width="136.607" height="12.181"/>
						
							<rect x="273.608" y="145.614" transform="matrix(-1.836970e-16 1 -1 -1.836970e-16 493.6155 -190.2066)" style="fill:#F5F5F5;" width="136.607" height="12.181"/>
						
							<rect x="27.567" y="151.721" transform="matrix(-1.836970e-16 1 -1 -1.836970e-16 242.3912 61.9086)" style="fill:#E6E6E6;" width="125.348" height="0.858"/>
					</g>
				</g>
			</g>
			<g>
				<g>
					<path style="fill:#E6E6E6;" d="M78.343,70.798h343.313c0.573,0,1.042,0.469,1.042,1.042l0,0c0,0.573-0.469,1.042-1.042,1.042
						H78.343c-0.573,0-1.042-0.469-1.042-1.042l0,0C77.301,71.266,77.77,70.798,78.343,70.798z"/>
					<path style="fill:#E6E6E6;" d="M412.874,77.673L412.874,77.673c0.773,0,1.406-0.633,1.406-1.406v-3.021
						c0-0.774-0.633-1.407-1.406-1.407l0,0c-0.774,0-1.406,0.633-1.406,1.407v3.021C411.468,77.04,412.101,77.673,412.874,77.673z"
						/>
					<path style="fill:#E6E6E6;" d="M94.054,77.673L94.054,77.673c0.773,0,1.406-0.633,1.406-1.406v-3.021
						c0-0.774-0.633-1.407-1.406-1.407l0,0c-0.774,0-1.407,0.633-1.407,1.407v3.021C92.647,77.04,93.28,77.673,94.054,77.673z"/>
				</g>
				
					<rect x="78.676" y="71.839" transform="matrix(-1 -1.224647e-16 1.224647e-16 -1 486.3881 179.12)" style="opacity:0.6;fill:#E0E0E0;" width="329.036" height="35.441"/>
			</g>
		</g>
		<g>
			<path style="fill:#E6E6E6;" d="M194.763,331.7c3.542-1.203,6.121-4.623,3.867-8.128c-3.73-5.798,5.604-7.032,2.984-16.737
				c-3.699-13.7-15.162-1.825-18.013-14.976c-2.074-9.569-18.144-15.837-18.772-3.24c-0.688,13.793-7.602,4.784-9.137,20.117
				c-1.062,10.602,14.027,12.147,9.524,15.463c-3.289,2.423-5.235,6.64-0.643,9.526c6.253,3.93,0.351,7,4.601,9.742
				c4.192,2.705,4.945-1.63,11.546,0.499c5.902,1.903,10.903-3.929,9.728-7.575C189.352,332.988,191.197,332.911,194.763,331.7z"/>
			<g>
				<path style="fill:#F0F0F0;" d="M160.649,338.004c0,0,0.485,44.395,19.09,44.395c18.605,0,19.09-44.395,19.09-44.395H160.649z"/>
			</g>
		</g>
		<g>
			<path style="fill:#E6E6E6;" d="M142.935,331.7c3.542-1.203,6.121-4.623,3.867-8.128c-3.73-5.798,5.605-7.032,2.984-16.737
				c-3.699-13.7-15.162-1.825-18.013-14.976c-2.074-9.569-18.144-15.837-18.772-3.24c-0.688,13.793-7.601,4.784-9.137,20.117
				c-1.062,10.602,14.027,12.147,9.524,15.463c-3.289,2.423-5.235,6.64-0.643,9.526c6.253,3.93,0.351,7,4.602,9.742
				c4.192,2.705,4.945-1.63,11.546,0.499c5.902,1.903,10.903-3.929,9.728-7.575C137.524,332.988,139.369,332.911,142.935,331.7z"/>
			<g>
				<path style="fill:#F0F0F0;" d="M108.821,338.004c0,0,0.485,44.395,19.09,44.395s19.09-44.395,19.09-44.395H108.821z"/>
			</g>
		</g>
		<g>
			<g>
				<g>
					<path style="fill:#F0F0F0;" d="M305.647,288.884c2.685-29.679,4.553-77.839,3.102-93.947c-0.05-0.559-0.328-1.063-0.754-1.394
						l0,0c-1.251-0.973-3.004,0.009-2.951,1.66c0.256,7.982,0.549,27.93-1.043,62.344c-0.793,17.13-1.935,28.863-1.151,31.337
						H305.647z"/>
					<path style="fill:#F0F0F0;" d="M313.914,227.438c6.413-8.039,19.514-13.755,32.863-13.725
						c5.241,0.012-15.945,9.352-24.756,19.658c-6.845,8.007-14.561,21.476-17.185,28.952
						C306.533,246.593,307.501,235.477,313.914,227.438z"/>
					<path style="fill:#F0F0F0;" d="M300.503,227.357c-6.347-8.841-21.001-15.639-36.855-16.407
						c-6.224-0.302,17.457,10.792,26.294,22.163c6.865,8.833,13.904,23.464,15.842,31.486
						C306.248,247.948,306.851,236.197,300.503,227.357z"/>
					<path style="fill:#F0F0F0;" d="M313.914,240.348c6.413-8.039,19.514-13.755,32.863-13.725
						c5.241,0.012-15.945,9.351-24.756,19.658c-6.845,8.007-14.561,21.476-17.185,28.952
						C306.533,259.503,307.501,248.387,313.914,240.348z"/>
					<path style="fill:#F0F0F0;" d="M300.503,240.989c-6.347-8.841-21.001-15.639-36.855-16.407
						c-6.224-0.302,17.457,10.792,26.294,22.163c6.865,8.833,13.904,23.464,15.842,31.486
						C306.248,261.58,306.851,249.829,300.503,240.989z"/>
					<path style="fill:#F0F0F0;" d="M312.756,197.068c4.201-5.97,13.196-10.635,22.587-11.27
						c3.687-0.249-10.855,7.362-16.655,15.045c-4.506,5.968-9.414,15.822-10.972,21.21
						C308.303,210.904,308.555,203.038,312.756,197.068z"/>
					<path style="fill:#F0F0F0;" d="M304.403,199.594c-4.474-6.231-14.801-11.022-25.974-11.563
						c-4.387-0.213,12.303,7.606,18.531,15.619c4.838,6.225,9.799,16.536,11.164,22.19
						C308.451,214.106,308.876,205.824,304.403,199.594z"/>
					<path style="fill:#F0F0F0;" d="M314.2,204.817c5.431-6.807,16.524-11.648,27.828-11.622c4.438,0.01-13.501,7.918-20.962,16.646
						c-5.796,6.78-12.33,18.185-14.552,24.516C307.951,221.037,308.77,211.625,314.2,204.817z"/>
					<path style="fill:#F0F0F0;" d="M303.166,208.441c-5.375-7.486-17.783-13.243-31.208-13.893
						c-5.271-0.256,14.782,9.139,22.265,18.767c5.813,7.479,11.774,19.869,13.414,26.661
						C308.031,225.877,308.541,215.927,303.166,208.441z"/>
					<path style="fill:#F0F0F0;" d="M314.561,214.26c5.859-7.344,17.827-12.566,30.023-12.539
						c4.788,0.011-14.566,8.543-22.616,17.959c-6.253,7.315-13.303,19.62-15.7,26.449
						C307.819,231.759,308.703,221.605,314.561,214.26z"/>
					<path style="fill:#F0F0F0;" d="M302.322,218.283c-5.968-8.313-19.746-14.704-34.652-15.427
						c-5.853-0.284,16.414,10.147,24.723,20.838c6.455,8.305,13.073,22.061,14.895,29.604
						C307.723,237.644,308.29,226.595,302.322,218.283z"/>
				</g>
				<g>
					<path style="fill:#E6E6E6;" d="M287.615,283.87l0.988,8.331c0.108,1.868,1.654,3.327,3.525,3.327h24.885
						c1.871,0,3.417-1.46,3.525-3.327l0.988-8.331c0.117-2.027-1.495-3.734-3.525-3.734h-26.861
						C289.109,280.136,287.498,281.843,287.615,283.87z"/>
					<path style="fill:#F5F5F5;" d="M286.127,285.632h36.886c0.542,0,0.996-0.407,1.056-0.946l0.876-7.938
						c0.069-0.629-0.423-1.179-1.056-1.179h-38.639c-0.633,0-1.125,0.55-1.056,1.179l0.876,7.938
						C285.131,285.224,285.585,285.632,286.127,285.632z"/>
				</g>
			</g>
			<g>
				<g>
					
						<rect x="230.934" y="295.528" transform="matrix(-1 -1.224647e-16 1.224647e-16 -1 477.8881 677.9264)" style="fill:#E6E6E6;" width="16.019" height="86.87"/>
					<polygon style="fill:#F0F0F0;" points="235.737,382.398 230.934,382.398 230.934,365.775 240.772,365.775 					"/>
					
						<rect x="430.513" y="295.528" transform="matrix(-1 -1.224647e-16 1.224647e-16 -1 877.0449 677.9264)" style="fill:#E6E6E6;" width="16.02" height="86.87"/>
					
						<rect x="230.934" y="295.528" transform="matrix(-1 -1.224647e-16 1.224647e-16 -1 665.6384 667.7254)" style="fill:#F0F0F0;" width="203.769" height="76.669"/>
					<polygon style="fill:#F0F0F0;" points="429.901,382.398 434.704,382.398 434.704,365.775 424.866,365.775 					"/>
					
						<rect x="234.66" y="300.924" transform="matrix(-1 -1.224647e-16 1.224647e-16 -1 665.6384 632.5265)" style="fill:#E6E6E6;" width="196.318" height="30.678"/>
					<path style="fill:#F0F0F0;" d="M263.433,310.458h135.546c4.686,0,9.165-3.785,12.388-10.467h0H251.046l0,0
						C254.268,306.673,258.748,310.458,263.433,310.458z"/>
					
						<rect x="234.66" y="336.561" transform="matrix(-1 -1.224647e-16 1.224647e-16 -1 665.6384 703.7999)" style="fill:#E6E6E6;" width="196.318" height="30.678"/>
					<path style="fill:#F0F0F0;" d="M263.433,346.094h135.546c4.686,0,9.165-3.785,12.388-10.466h0H251.046l0,0
						C254.268,342.31,258.748,346.094,263.433,346.094z"/>
				</g>
			</g>
			<g>
				<g>
					<g>
						<path style="fill:#F5F5F5;" d="M432.236,275.17c0,0-0.876,20.359-34.452,20.359c-33.576,0-34.452-20.359-34.452-20.359
							H432.236z"/>
					</g>
				</g>
				<g>
					<g>
						<path style="fill:#F5F5F5;" d="M432.236,264.602c0,0-0.876,20.359-34.452,20.359c-33.576,0-34.452-20.359-34.452-20.359
							H432.236z"/>
					</g>
				</g>
			</g>
		</g>
	</g>
</g>
<g id="Background_Simple" style="display:none;">
	<g style="display:inline;">
		<path style="fill:#407BFF;" d="M157.764,267.672c47.849,12.991,83.257,83.271,138.59,63.043
			c48.345-17.673,15.048-81.983,72.37-84.013c34.781-1.232,104.264,7.302,78.513-59.485c-15.633-40.546-58.322-75.931-99.83-89.011
			c-64.289-20.259-47.566,59.897-92.279,74.604c-20.1,6.611-32.377-6.557-49.087-14.993c-24.578-12.409-57.171-26.073-85.131-26.585
			c-44.493-0.815-83.965,46.388-81.965,90.766C42.438,299.468,113.656,255.697,157.764,267.672z"/>
		<path style="opacity:0.9;fill:#FFFFFF;" d="M157.764,267.672c47.849,12.991,83.257,83.271,138.59,63.043
			c48.345-17.673,15.048-81.983,72.37-84.013c34.781-1.232,104.264,7.302,78.513-59.485c-15.633-40.546-58.322-75.931-99.83-89.011
			c-64.289-20.259-47.566,59.897-92.279,74.604c-20.1,6.611-32.377-6.557-49.087-14.993c-24.578-12.409-57.171-26.073-85.131-26.585
			c-44.493-0.815-83.965,46.388-81.965,90.766C42.438,299.468,113.656,255.697,157.764,267.672z"/>
	</g>
</g>
<g id="Shadow_1_">
	<ellipse id="_x3C_Path_x3E__152_" style="fill:#F5F5F5;" cx="250" cy="416.238" rx="193.889" ry="11.323"/>
</g>
<g id="Character_3">
	<g>
		<path style="fill:#263238;" d="M367.897,135.37c-5.977,3.278-8.042,13.036-5.182,17.228c-10.407,3.126-5.005,20.969,12.012,21.985
			c17.018,1.016,29.942-5.214,21.597-18.478c8.258-11.13,4.452-23.556-2.785-22.183C385.753,118.37,359.732,118.828,367.897,135.37z
			"/>
		<path style="fill:#263238;" d="M385.959,175.797c-2.439,0-4.984-0.625-7.439-2.082c-0.118-0.071-0.157-0.224-0.087-0.343
			c0.07-0.119,0.225-0.158,0.343-0.087c6.858,4.072,14.466,1.423,18.139-3.141c2.725-3.385,3.952-8.806-0.774-13.869
			c-0.095-0.101-0.089-0.259,0.012-0.354c0.102-0.094,0.26-0.09,0.354,0.012c4.945,5.297,3.655,10.975,0.799,14.524
			C394.815,173.551,390.579,175.797,385.959,175.797z"/>
		<path style="fill:#263238;" d="M360.833,155.917c-0.104,0-0.2-0.064-0.236-0.167c-2.661-7.623,0.9-17.848,7.189-20.645
			c0.127-0.055,0.274,0,0.33,0.127c0.056,0.126-0.001,0.274-0.127,0.33c-6.077,2.702-9.505,12.62-6.92,20.022
			c0.045,0.13-0.023,0.273-0.154,0.319C360.888,155.912,360.86,155.917,360.833,155.917z"/>
		<path style="fill:#263238;" d="M359.198,144.908c-0.029,0-0.06-0.005-0.088-0.016c-0.13-0.049-0.194-0.193-0.146-0.322
			c1.8-4.765,5.191-8.396,8.853-9.476c0.132-0.04,0.271,0.037,0.31,0.169c0.039,0.133-0.037,0.271-0.17,0.311
			c-3.513,1.037-6.78,4.552-8.526,9.173C359.395,144.846,359.299,144.908,359.198,144.908z"/>
		<polygon style="fill:#FFB573;" points="373.199,410.912 367.423,410.92 366.45,389.215 376.176,389.453 		"/>
		<path style="fill:#407BFF;" d="M363.153,223.57c0,0-0.509,60.253-1.788,86.481c-0.038,0.783-0.031,1.557,0.026,2.339
			c1.899,26.29,5.05,76.818,5.05,76.818l9.788,0.25c0,0,8.533-40.347,3.248-76.903c8.488-41.338,13.062-78.222,5.373-88.986H363.153
			z"/>
		<path style="opacity:0.2;" d="M379.554,247.5c-2.97,10.06-0.08,42.4,1.47,57.32c2.11-10.78,3.91-21.15,5.24-30.71L379.554,247.5z"
			/>
		<path style="fill:#263238;" d="M366.775,408.106l7.502-0.009c0.345,0,0.613,0.232,0.644,0.559l0.758,6.152
			c0.072,0.756-0.635,1.473-1.43,1.46c-3.304-0.051-4.887-0.238-9.058-0.233c-2.566,0.003-4.124,0.264-7.667,0.269
			c-3.466,0.004-3.554-3.4-2.062-3.71c6.688-1.391,7.552-2.161,9.876-3.983C365.756,408.284,366.27,408.107,366.775,408.106z"/>
		<path style="fill:#FFB573;" d="M369.24,179.235c-0.372,2.062-0.794,4.032-1.241,6.034c-0.443,1.995-0.906,3.986-1.435,5.967
			c-1.053,3.963-2.148,7.927-3.589,11.88c-0.727,1.98-1.49,3.961-2.51,5.98c-0.503,1.008-1.075,2.032-1.837,3.113
			c-0.197,0.272-0.375,0.534-0.634,0.828c-0.254,0.29-0.441,0.548-0.831,0.884c-0.66,0.62-1.601,1.247-2.703,1.569
			c-1.095,0.338-2.295,0.347-3.261,0.129c-0.967-0.217-1.745-0.585-2.401-0.99c-1.291-0.818-2.175-1.727-2.939-2.654
			c-1.512-1.867-2.505-3.748-3.346-5.862c-0.428-1.075,0.097-2.293,1.172-2.721c0.808-0.322,1.697-0.105,2.271,0.479l0.124,0.128
			c1.275,1.303,2.71,2.666,4.043,3.645c0.672,0.476,1.344,0.875,1.831,1.007c0.235,0.057,0.402,0.061,0.427,0.024
			c0.026-0.045-0.14-0.105-0.286-0.096c-0.152-0.001-0.227,0.06-0.188-0.042c-0.01,0.003,0.097-0.149,0.168-0.244
			c0.075-0.084,0.167-0.247,0.257-0.388c0.362-0.586,0.749-1.338,1.095-2.153c0.707-1.615,1.346-3.414,1.922-5.238
			c1.143-3.667,2.177-7.469,3.081-11.309c0.909-3.829,1.791-7.736,2.591-11.552l0.005-0.022c0.474-2.263,2.693-3.712,4.956-3.238
			C368.202,174.86,369.639,177.015,369.24,179.235z"/>
		<path style="fill:#263238;" d="M360.152,215.389c0.02,2.461,38.337,2.945,38.337-0.305l-19.587-5L360.152,215.389"/>
		<path style="fill:#FFB573;" d="M367.192,172.778c10.188-1.744,20.355-1.532,30.507,0.303c2.496,0.394,4.141,2.811,3.591,5.277
			c-5.419,24.273-5.112,32.428-4.585,45.211h-33.548c-1.681-21.319-2.564-33.487-2.792-40.403
			C360.192,177.901,361.979,173.547,367.192,172.778z"/>
		<path style="opacity:0.2;" d="M397.602,179.83c-0.35,2.17,0.28,7.24,1.32,10c0.43-2.31,0.93-4.79,1.5-7.5L397.602,179.83z"/>
		<path style="fill:#FFB573;" d="M386.687,155.056c-0.952,4.858-1.903,13.76,1.496,17.001c0,0-1.328,4.928-10.355,4.928
			c-9.926,0-4.744-4.928-4.744-4.928c5.418-1.294,5.278-5.313,4.334-9.088L386.687,155.056z"/>
		<path style="opacity:0.2;" d="M382.908,158.285l-5.486,4.681c0.227,0.893,0.403,1.799,0.465,2.68
			c2.07-0.299,4.913-2.571,5.132-4.738C383.13,159.827,383.084,158.789,382.908,158.285z"/>
		<path style="fill:#FFB573;" d="M391.927,146.638c-1.852,7.912-2.467,11.3-7.204,14.716c-7.125,5.139-16.438,1.133-16.986-7.172
			c-0.494-7.476,2.618-19.158,10.986-21.008C386.966,131.352,393.779,138.726,391.927,146.638z"/>
		<path style="fill:#263238;" d="M388.905,134.738c-8.372,0.929-5.826,16.554,0.47,18.067
			C396.764,149.193,401.311,135.475,388.905,134.738z"/>
		<polygon style="fill:#FFB573;" points="429.93,396.606 424.136,398.375 415.693,380.672 424.599,378.235 		"/>
		<path style="fill:#263238;" d="M422.474,396.597l7.439-2.876c0.271-0.105,0.569,0.001,0.719,0.253l3.324,5.62
			c0.345,0.583,0.063,1.37-0.566,1.6c-2.612,0.957-3.865,1.509-7.136,2.773c-2.013,0.778-5.14,3.378-7.919,4.452
			c-2.718,1.051-3.97-1.465-3.031-2.345c3.792-3.552,5.451-6.606,6.235-8.639C421.694,397.032,422.078,396.75,422.474,396.597z"/>
		<path style="fill:#407BFF;" d="M372.355,223.57c0,0,12.334,63.068,16.983,88.036c4.835,25.97,26.35,69.068,26.35,69.068
			l8.934-2.445c0,0-12.232-46.061-17.936-68.89c-1.111-41.338,0.208-75.005-9.981-85.769
			C385.517,223.57,372.355,223.57,372.355,223.57z"/>
		<path style="fill:#263238;" d="M378.814,146.59c-0.111,0.651-0.546,1.12-0.971,1.048c-0.426-0.072-0.681-0.659-0.57-1.31
			c0.111-0.651,0.546-1.12,0.971-1.048C378.67,145.352,378.925,145.939,378.814,146.59z"/>
		<path style="fill:#263238;" d="M371.456,145.337c-0.111,0.651-0.546,1.12-0.971,1.048c-0.426-0.072-0.681-0.659-0.57-1.31
			c0.111-0.651,0.546-1.12,0.971-1.048C371.312,144.1,371.567,144.686,371.456,145.337z"/>
		<path style="fill:#263238;" d="M371.068,144.095l-1.487-0.717C369.581,143.378,370.175,144.736,371.068,144.095z"/>
		<path style="fill:#ED893E;" d="M373.525,146.896c0,0-1.582,2.615-3.028,3.76c0.723,0.949,2.247,0.831,2.247,0.831L373.525,146.896
			z"/>
		<path style="fill:#263238;" d="M375.86,154.64c-0.308-0.005-0.631-0.033-0.971-0.091c-0.106-0.018-0.177-0.118-0.159-0.224
			c0.018-0.106,0.127-0.175,0.223-0.159c2.866,0.487,4.531-1.282,4.548-1.3c0.072-0.079,0.195-0.084,0.274-0.011
			c0.079,0.073,0.083,0.195,0.011,0.274C379.72,153.201,378.321,154.679,375.86,154.64z"/>
		<path style="fill:#FFB573;" d="M393.067,153.456c-0.834,1.463-2.266,2.405-3.607,2.749c-2.017,0.518-2.981-1.297-2.384-3.177
			c0.538-1.693,2.235-4.001,4.242-3.686C393.295,149.654,394.021,151.783,393.067,153.456z"/>
		<path style="fill:#263238;" d="M382.023,145.594c-0.163-0.003-0.314-0.109-0.364-0.273c-0.529-1.715-2.721-2.446-2.742-2.454
			c-0.204-0.066-0.315-0.285-0.249-0.489c0.066-0.203,0.284-0.316,0.489-0.249c0.106,0.035,2.597,0.868,3.243,2.962
			c0.063,0.205-0.052,0.422-0.256,0.485C382.103,145.589,382.063,145.594,382.023,145.594z"/>
		<path style="fill:#263238;" d="M369.824,141.561c-0.132-0.002-0.26-0.072-0.331-0.195c-0.107-0.186-0.042-0.423,0.144-0.529
			c1.86-1.067,3.465-0.271,3.532-0.236c0.191,0.097,0.266,0.331,0.169,0.522c-0.097,0.19-0.329,0.266-0.52,0.17l0,0
			c-0.053-0.026-1.309-0.634-2.795,0.218C369.96,141.546,369.891,141.562,369.824,141.561z"/>
		<path style="fill:#FFB573;" d="M400.444,174.468c2.851,3.729,5.434,7.5,7.892,11.48c1.229,1.984,2.424,4.004,3.52,6.129
			c1.101,2.14,2.156,4.29,2.959,6.915c0.104,0.316,0.19,0.686,0.28,1.033l0.07,0.291l0.081,0.422
			c0.042,0.271,0.073,0.54,0.087,0.788c0.054,1-0.048,1.838-0.19,2.594c-0.304,1.503-0.771,2.746-1.27,3.93
			c-1.002,2.352-2.223,4.412-3.479,6.422c-2.562,3.988-5.386,7.617-8.511,11.104c-0.767,0.856-2.083,0.928-2.94,0.161
			c-0.745-0.668-0.896-1.751-0.417-2.585l0.028-0.049c2.21-3.851,4.396-7.808,6.282-11.731c0.947-1.954,1.794-3.946,2.417-5.833
			c0.303-0.936,0.527-1.867,0.598-2.604c0.042-0.362,0.027-0.664-0.003-0.795c-0.007-0.034-0.017-0.047-0.021-0.055l-0.006,0.006
			l-0.041-0.119c-0.07-0.197-0.119-0.379-0.21-0.596c-0.645-1.681-1.676-3.585-2.744-5.424c-1.097-1.847-2.262-3.705-3.47-5.547
			c-2.436-3.661-5.038-7.344-7.598-10.899l-0.035-0.049c-1.351-1.876-0.925-4.492,0.951-5.842
			C396.515,172.287,399.073,172.678,400.444,174.468z"/>
		<path style="fill:#263238;" d="M378.426,145.348l-1.487-0.717C376.94,144.631,377.534,145.989,378.426,145.348z"/>
		<path style="fill:#263238;" d="M361.306,180.778c1.083-4.337,2.381-7.409,2.381-7.409s2.629-0.785,4.696-0.994
			c0.944,0.847,5.141,4.611,7.833,10.181c4.295-4.333,12.5-8.722,17.5-10.325c2.529-0.251,5.05,0.63,5.05,0.63
			c-3.407,10.759-6.888,21.583-0.721,24.361c-0.103,5.111,0.189,11.444,0.443,17.861c-5.833-0.639-28.952-1.75-38.337,0.305
			c-0.481-6.498-0.656-12.036-0.624-16.749C355.106,193.056,359.491,185.477,361.306,180.778z"/>
		<g>
			<defs>
				<path id="SVGID_1_" d="M361.306,180.778c1.083-4.337,2.381-7.409,2.381-7.409s2.629-0.785,4.696-0.994
					c0.944,0.847,5.141,4.611,7.833,10.181c4.295-4.333,12.5-8.722,17.5-10.325c2.529-0.251,5.05,0.63,5.05,0.63
					c-3.407,10.759-6.888,21.583-0.721,24.361c-0.103,5.111,0.189,11.444,0.443,17.861c-5.833-0.639-28.952-1.75-38.337,0.305
					c-0.481-6.498-0.656-12.036-0.624-16.749C355.106,193.056,359.491,185.477,361.306,180.778z"/>
			</defs>
			<clipPath id="SVGID_00000139977004023763732830000006516351051417371575_">
				<use xlink:href="#SVGID_1_"  style="overflow:visible;"/>
			</clipPath>
			<g style="opacity:0.2;clip-path:url(#SVGID_00000139977004023763732830000006516351051417371575_);">
				<path style="fill:#FFFFFF;" d="M370.501,200.793c-0.105,0.012-0.197,0.079-0.24,0.175c-0.597,1.33-0.795,3.972,0.056,6.137
					c-0.691-0.573-1.366-1.15-2.02-1.727c0.29-0.584,1.773-3.969-0.857-7.478c-0.064-0.085-0.167-0.13-0.273-0.118
					c-0.105,0.012-0.197,0.079-0.24,0.175c-0.613,1.365-0.801,4.112,0.13,6.307c-0.901-0.824-1.754-1.64-2.548-2.43
					c0.001-0.002,0.003-0.004,0.004-0.006c0.021-0.037,2.067-3.73-0.811-7.568c-0.064-0.085-0.168-0.13-0.273-0.118
					c-0.105,0.012-0.197,0.079-0.24,0.175c-0.613,1.366-0.801,4.114,0.131,6.309c-1.37-1.424-2.514-2.729-3.357-3.807
					c-0.642-2.836-3.272-4.878-4.875-5.211c-0.099-0.02-0.201,0.01-0.272,0.081c-0.067,0.064-0.102,0.173-0.082,0.272
					c0.896,4.428,4.162,5.195,4.82,5.305c0.464,0.59,1.014,1.244,1.64,1.947c-1.787-0.783-3.828-0.913-5.006-0.599
					c-0.101,0.027-0.181,0.105-0.211,0.206c-0.029,0.101-0.004,0.209,0.067,0.287c2.862,3.118,6.266,2.377,7.053,2.149
					c0.563,0.58,1.161,1.178,1.79,1.787c-2.306-0.708-5.067-0.313-6.404,0.381c-0.096,0.05-0.158,0.148-0.162,0.257
					c-0.003,0.108,0.052,0.21,0.146,0.266c3.701,2.218,6.975,0.654,7.663,0.275c0.841,0.783,1.726,1.576,2.648,2.368
					c-2.21-1.059-5.084-0.958-6.511-0.376c-0.099,0.04-0.169,0.13-0.184,0.236c-0.015,0.106,0.029,0.212,0.113,0.278
					c3.791,2.953,7.571,1.033,7.609,1.013c0.027-0.014,0.052-0.032,0.073-0.054c0.031-0.031,0.052-0.071,0.067-0.113
					c0.372,0.308,0.749,0.615,1.13,0.92c0.004,0.005,0.007,0.01,0.01,0.015c0.034,0.046,0.081,0.079,0.133,0.099
					c0.6,0.478,1.21,0.951,1.829,1.415c0.121,0.091,0.288,0.076,0.392-0.028c0.01-0.01,0.019-0.021,0.028-0.033
					c0.099-0.132,0.072-0.32-0.06-0.419c-0.574-0.43-1.141-0.869-1.7-1.312c0.399-0.889,1.52-4.051-0.931-7.321
					C370.71,200.826,370.607,200.781,370.501,200.793z"/>
				<path style="fill:#FFFFFF;" d="M360.639,185.297c0.105-0.012,0.197-0.079,0.24-0.175c0.597-1.33,0.795-3.972-0.056-6.138
					c0.691,0.573,1.366,1.15,2.02,1.727c-0.29,0.584-1.773,3.969,0.857,7.479c0.064,0.085,0.167,0.13,0.273,0.118
					c0.105-0.012,0.197-0.079,0.24-0.175c0.613-1.365,0.801-4.112-0.13-6.307c0.9,0.824,1.754,1.64,2.548,2.429
					c-0.001,0.002-0.003,0.004-0.004,0.006c-0.021,0.037-2.067,3.73,0.811,7.568c0.064,0.085,0.168,0.13,0.273,0.118
					c0.105-0.012,0.197-0.079,0.24-0.175c0.613-1.366,0.801-4.114-0.131-6.309c1.37,1.424,2.514,2.729,3.357,3.807
					c0.642,2.836,3.272,4.878,4.875,5.211c0.099,0.02,0.201-0.01,0.272-0.081c0.067-0.064,0.102-0.173,0.082-0.272
					c-0.896-4.428-4.162-5.195-4.819-5.305c-0.464-0.59-1.014-1.244-1.64-1.947c1.787,0.783,3.828,0.913,5.006,0.599
					c0.101-0.027,0.181-0.105,0.211-0.206c0.029-0.101,0.004-0.209-0.067-0.287c-2.862-3.118-6.266-2.377-7.053-2.149
					c-0.563-0.58-1.161-1.178-1.79-1.788c2.306,0.708,5.067,0.313,6.404-0.38c0.096-0.05,0.158-0.148,0.162-0.257
					c0.003-0.108-0.052-0.21-0.145-0.266c-3.701-2.218-6.975-0.654-7.663-0.275c-0.841-0.783-1.726-1.577-2.648-2.368
					c2.21,1.059,5.084,0.958,6.511,0.376c0.099-0.04,0.169-0.13,0.184-0.236c0.014-0.106-0.029-0.212-0.113-0.277
					c-3.791-2.953-7.571-1.033-7.609-1.013c-0.027,0.014-0.052,0.032-0.073,0.054c-0.031,0.031-0.052,0.071-0.067,0.113
					c-0.372-0.308-0.749-0.615-1.13-0.92c-0.004-0.005-0.007-0.01-0.01-0.015c-0.034-0.046-0.081-0.079-0.133-0.099
					c-0.6-0.478-1.21-0.951-1.829-1.415c-0.121-0.091-0.288-0.076-0.392,0.028c-0.01,0.01-0.019,0.021-0.028,0.033
					c-0.099,0.132-0.072,0.32,0.06,0.419c0.574,0.43,1.141,0.869,1.7,1.312c-0.399,0.889-1.52,4.051,0.931,7.321
					C360.43,185.263,360.534,185.308,360.639,185.297z"/>
				<path style="fill:#FFFFFF;" d="M391.473,208.088c-0.105,0.012-0.197,0.079-0.24,0.175c-0.597,1.33-0.795,3.972,0.056,6.137
					c-0.691-0.573-1.366-1.15-2.02-1.727c0.29-0.584,1.773-3.97-0.857-7.479c-0.064-0.085-0.167-0.13-0.273-0.118
					c-0.105,0.012-0.197,0.079-0.24,0.175c-0.613,1.365-0.801,4.112,0.13,6.307c-0.9-0.824-1.754-1.64-2.548-2.43
					c0.001-0.002,0.003-0.004,0.004-0.006c0.021-0.037,2.067-3.73-0.811-7.568c-0.064-0.085-0.168-0.13-0.273-0.118
					c-0.105,0.012-0.197,0.079-0.24,0.175c-0.613,1.366-0.801,4.114,0.131,6.309c-1.371-1.424-2.514-2.729-3.357-3.807
					c-0.642-2.836-3.272-4.878-4.875-5.211c-0.099-0.02-0.201,0.01-0.272,0.081c-0.067,0.064-0.102,0.173-0.082,0.272
					c0.896,4.428,4.162,5.195,4.82,5.305c0.464,0.59,1.014,1.244,1.64,1.947c-1.787-0.783-3.828-0.913-5.006-0.599
					c-0.101,0.027-0.181,0.105-0.211,0.206c-0.029,0.101-0.004,0.209,0.067,0.287c2.862,3.118,6.266,2.377,7.053,2.149
					c0.563,0.58,1.161,1.178,1.79,1.787c-2.306-0.708-5.067-0.313-6.404,0.381c-0.096,0.05-0.158,0.148-0.162,0.257
					c-0.003,0.108,0.052,0.21,0.146,0.266c3.701,2.218,6.975,0.654,7.663,0.275c0.841,0.783,1.726,1.576,2.648,2.368
					c-2.21-1.059-5.084-0.958-6.511-0.376c-0.099,0.04-0.169,0.131-0.184,0.236c-0.014,0.106,0.029,0.212,0.113,0.278
					c3.791,2.953,7.571,1.033,7.609,1.013c0.027-0.014,0.052-0.033,0.073-0.054c0.031-0.031,0.052-0.071,0.067-0.113
					c0.372,0.308,0.749,0.615,1.13,0.92c0.004,0.005,0.007,0.01,0.01,0.015c0.034,0.046,0.081,0.079,0.133,0.099
					c0.6,0.478,1.21,0.951,1.829,1.415c0.121,0.091,0.288,0.076,0.392-0.028c0.01-0.01,0.019-0.021,0.028-0.033
					c0.099-0.132,0.072-0.32-0.06-0.419c-0.574-0.43-1.141-0.869-1.7-1.312c0.399-0.889,1.52-4.051-0.931-7.321
					C391.682,208.121,391.578,208.076,391.473,208.088z"/>
				<path style="fill:#FFFFFF;" d="M410.699,215.032c-0.105,0.012-0.197,0.079-0.24,0.175c-0.597,1.33-0.795,3.972,0.056,6.138
					c-0.691-0.573-1.366-1.15-2.02-1.727c0.29-0.584,1.773-3.969-0.857-7.478c-0.064-0.085-0.167-0.13-0.273-0.118
					c-0.105,0.012-0.197,0.079-0.24,0.175c-0.613,1.365-0.801,4.112,0.13,6.307c-0.901-0.824-1.754-1.64-2.548-2.43
					c0.001-0.002,0.003-0.003,0.004-0.006c0.021-0.037,2.067-3.73-0.811-7.568c-0.064-0.085-0.168-0.13-0.273-0.118
					c-0.105,0.012-0.197,0.079-0.24,0.175c-0.613,1.366-0.801,4.114,0.131,6.309c-1.37-1.424-2.514-2.729-3.356-3.807
					c-0.642-2.836-3.272-4.878-4.875-5.211c-0.099-0.02-0.201,0.01-0.272,0.081c-0.067,0.064-0.102,0.173-0.082,0.272
					c0.896,4.428,4.162,5.195,4.82,5.305c0.464,0.59,1.014,1.244,1.64,1.947c-1.787-0.783-3.828-0.913-5.006-0.599
					c-0.101,0.027-0.181,0.105-0.211,0.206c-0.029,0.101-0.004,0.209,0.067,0.286c2.862,3.118,6.266,2.377,7.053,2.149
					c0.563,0.58,1.161,1.178,1.79,1.788c-2.306-0.708-5.067-0.313-6.404,0.38c-0.096,0.05-0.158,0.148-0.162,0.257
					c-0.003,0.109,0.052,0.21,0.146,0.266c3.701,2.218,6.975,0.654,7.663,0.275c0.841,0.783,1.726,1.577,2.648,2.368
					c-2.21-1.059-5.084-0.958-6.511-0.376c-0.099,0.04-0.169,0.131-0.184,0.236c-0.015,0.106,0.029,0.212,0.113,0.277
					c3.791,2.953,7.571,1.033,7.609,1.013c0.027-0.014,0.052-0.033,0.073-0.054c0.032-0.031,0.052-0.071,0.067-0.113
					c0.372,0.308,0.749,0.615,1.13,0.92c0.004,0.005,0.007,0.01,0.01,0.015c0.034,0.046,0.081,0.079,0.133,0.099
					c0.601,0.478,1.21,0.951,1.829,1.415c0.121,0.091,0.288,0.076,0.391-0.028c0.01-0.01,0.019-0.021,0.028-0.033
					c0.099-0.132,0.072-0.32-0.06-0.419c-0.574-0.43-1.141-0.869-1.7-1.312c0.399-0.889,1.52-4.051-0.931-7.321
					C410.908,215.066,410.804,215.021,410.699,215.032z"/>
				<path style="fill:#FFFFFF;" d="M366.729,216.126c-0.105,0.012-0.197,0.079-0.24,0.175c-0.597,1.33-0.795,3.972,0.056,6.138
					c-0.691-0.573-1.366-1.15-2.02-1.727c0.29-0.584,1.773-3.97-0.857-7.478c-0.064-0.085-0.167-0.13-0.273-0.118
					c-0.105,0.012-0.197,0.079-0.24,0.175c-0.613,1.365-0.801,4.112,0.13,6.307c-0.9-0.824-1.754-1.64-2.548-2.43
					c0.001-0.002,0.003-0.003,0.004-0.006c0.021-0.037,2.067-3.73-0.811-7.568c-0.064-0.085-0.167-0.13-0.273-0.118
					c-0.105,0.012-0.197,0.079-0.24,0.175c-0.613,1.366-0.801,4.114,0.131,6.309c-1.371-1.424-2.514-2.729-3.357-3.808
					c-0.642-2.836-3.272-4.878-4.875-5.211c-0.099-0.021-0.201,0.01-0.272,0.081c-0.067,0.064-0.102,0.173-0.082,0.272
					c0.896,4.428,4.162,5.195,4.819,5.305c0.464,0.59,1.014,1.244,1.64,1.947c-1.787-0.783-3.828-0.913-5.006-0.599
					c-0.101,0.027-0.181,0.105-0.211,0.206c-0.029,0.101-0.004,0.209,0.067,0.286c2.862,3.118,6.266,2.377,7.053,2.149
					c0.563,0.58,1.161,1.178,1.79,1.788c-2.306-0.708-5.067-0.313-6.404,0.38c-0.096,0.05-0.158,0.148-0.162,0.257
					c-0.003,0.109,0.052,0.21,0.146,0.266c3.701,2.218,6.975,0.654,7.663,0.275c0.841,0.783,1.726,1.577,2.648,2.368
					c-2.21-1.059-5.084-0.958-6.511-0.376c-0.099,0.04-0.169,0.131-0.184,0.236c-0.015,0.106,0.028,0.212,0.113,0.277
					c3.791,2.953,7.571,1.033,7.609,1.013c0.027-0.014,0.052-0.032,0.073-0.054c0.031-0.031,0.052-0.071,0.067-0.113
					c0.372,0.308,0.749,0.615,1.13,0.92c0.004,0.005,0.007,0.01,0.01,0.015c0.034,0.046,0.081,0.079,0.133,0.099
					c0.6,0.478,1.21,0.951,1.829,1.415c0.121,0.091,0.288,0.076,0.391-0.028c0.01-0.01,0.019-0.021,0.028-0.033
					c0.099-0.132,0.072-0.32-0.06-0.419c-0.574-0.43-1.141-0.869-1.7-1.312c0.399-0.889,1.52-4.051-0.931-7.321
					C366.938,216.16,366.834,216.115,366.729,216.126z"/>
				<path style="fill:#FFFFFF;" d="M390.832,174.043c-0.105,0.012-0.197,0.079-0.24,0.175c-0.597,1.33-0.795,3.972,0.056,6.137
					c-0.691-0.573-1.366-1.15-2.02-1.727c0.29-0.584,1.773-3.969-0.857-7.478c-0.064-0.085-0.167-0.13-0.273-0.118
					c-0.105,0.012-0.197,0.079-0.24,0.175c-0.613,1.365-0.801,4.112,0.13,6.307c-0.901-0.824-1.754-1.64-2.548-2.43
					c0.001-0.002,0.003-0.004,0.004-0.006c0.021-0.037,2.067-3.73-0.811-7.568c-0.064-0.085-0.167-0.13-0.273-0.118
					c-0.105,0.012-0.197,0.079-0.24,0.175c-0.613,1.366-0.801,4.114,0.131,6.309c-1.37-1.424-2.514-2.729-3.357-3.807
					c-0.642-2.836-3.272-4.878-4.875-5.211c-0.099-0.02-0.201,0.01-0.272,0.081c-0.067,0.064-0.102,0.173-0.082,0.272
					c0.896,4.428,4.162,5.195,4.82,5.305c0.464,0.59,1.014,1.244,1.64,1.947c-1.787-0.783-3.828-0.913-5.006-0.599
					c-0.101,0.027-0.181,0.105-0.211,0.206c-0.029,0.101-0.004,0.209,0.067,0.287c2.862,3.118,6.266,2.377,7.053,2.149
					c0.563,0.58,1.161,1.178,1.79,1.787c-2.306-0.708-5.067-0.313-6.404,0.381c-0.096,0.05-0.158,0.148-0.162,0.257
					c-0.003,0.108,0.052,0.21,0.145,0.266c3.701,2.218,6.975,0.654,7.663,0.275c0.841,0.783,1.726,1.576,2.648,2.368
					c-2.21-1.059-5.084-0.958-6.511-0.376c-0.099,0.04-0.169,0.13-0.184,0.236c-0.015,0.106,0.028,0.212,0.113,0.278
					c3.791,2.953,7.571,1.033,7.609,1.013c0.027-0.014,0.052-0.032,0.073-0.054c0.032-0.031,0.052-0.071,0.067-0.113
					c0.372,0.308,0.749,0.615,1.13,0.92c0.004,0.005,0.007,0.01,0.01,0.015c0.034,0.046,0.081,0.079,0.133,0.099
					c0.6,0.478,1.21,0.951,1.829,1.415c0.121,0.091,0.288,0.076,0.391-0.028c0.01-0.01,0.019-0.021,0.028-0.033
					c0.099-0.132,0.072-0.32-0.06-0.419c-0.574-0.43-1.141-0.869-1.7-1.312c0.399-0.889,1.52-4.051-0.931-7.321
					C391.042,174.076,390.938,174.031,390.832,174.043z"/>
				<path style="fill:#FFFFFF;" d="M381.333,192.963c0.105-0.011,0.197-0.079,0.24-0.175c0.597-1.33,0.795-3.972-0.056-6.138
					c0.691,0.573,1.366,1.15,2.02,1.727c-0.29,0.584-1.773,3.97,0.857,7.478c0.064,0.085,0.167,0.13,0.273,0.118
					c0.105-0.012,0.197-0.079,0.24-0.175c0.613-1.365,0.801-4.112-0.13-6.307c0.9,0.824,1.754,1.64,2.548,2.43
					c-0.001,0.002-0.003,0.003-0.004,0.006c-0.021,0.037-2.067,3.73,0.811,7.568c0.064,0.085,0.168,0.13,0.273,0.118
					c0.105-0.012,0.197-0.079,0.24-0.175c0.613-1.366,0.801-4.114-0.131-6.309c1.37,1.424,2.514,2.729,3.357,3.808
					c0.642,2.836,3.272,4.878,4.875,5.211c0.099,0.021,0.201-0.01,0.272-0.081c0.067-0.064,0.102-0.173,0.082-0.272
					c-0.896-4.428-4.162-5.195-4.82-5.305c-0.464-0.59-1.014-1.244-1.64-1.947c1.787,0.783,3.828,0.913,5.006,0.599
					c0.101-0.027,0.181-0.105,0.21-0.206c0.029-0.101,0.004-0.209-0.067-0.286c-2.863-3.118-6.266-2.377-7.053-2.149
					c-0.563-0.58-1.161-1.178-1.79-1.787c2.306,0.708,5.067,0.313,6.404-0.38c0.096-0.05,0.158-0.148,0.162-0.257
					c0.003-0.109-0.052-0.21-0.146-0.266c-3.701-2.218-6.975-0.654-7.663-0.275c-0.841-0.783-1.726-1.577-2.647-2.368
					c2.21,1.059,5.084,0.958,6.511,0.376c0.099-0.04,0.169-0.13,0.184-0.236c0.014-0.106-0.029-0.212-0.113-0.277
					c-3.791-2.953-7.571-1.033-7.609-1.013c-0.027,0.014-0.052,0.033-0.073,0.054c-0.031,0.031-0.052,0.071-0.067,0.113
					c-0.372-0.308-0.749-0.615-1.13-0.92c-0.004-0.005-0.007-0.01-0.01-0.015c-0.034-0.046-0.081-0.079-0.133-0.099
					c-0.6-0.478-1.21-0.951-1.829-1.415c-0.121-0.091-0.288-0.076-0.392,0.028c-0.01,0.01-0.019,0.021-0.028,0.033
					c-0.099,0.132-0.072,0.32,0.06,0.419c0.574,0.43,1.141,0.869,1.7,1.312c-0.399,0.889-1.52,4.051,0.931,7.321
					C381.124,192.93,381.228,192.975,381.333,192.963z"/>
			</g>
		</g>
		<g>
			<path style="fill:#407BFF;" d="M385.723,201.604l-66.994,6.752c-3.709,0.374-6.438,3.714-6.064,7.423l2.309,22.909
				c1.664-1.175,3.64-1.956,5.811-2.175c6.716-0.677,12.709,4.219,13.386,10.935c0.677,6.716-4.219,12.709-10.935,13.386
				c-2.171,0.219-4.263-0.152-6.128-0.971l2.309,22.909c0.374,3.709,3.714,6.437,7.423,6.064l66.994-6.752
				c3.709-0.374,6.438-3.714,6.064-7.423l-6.752-66.994C392.772,203.959,389.432,201.23,385.723,201.604z"/>
			<path style="opacity:0.3;" d="M385.723,201.604l-66.994,6.752c-3.709,0.374-6.438,3.714-6.064,7.423l2.309,22.909
				c1.664-1.175,3.64-1.956,5.811-2.175c6.716-0.677,12.709,4.219,13.386,10.935c0.677,6.716-4.219,12.709-10.935,13.386
				c-2.171,0.219-4.263-0.152-6.128-0.971l2.309,22.909c0.374,3.709,3.714,6.437,7.423,6.064l66.994-6.752
				c3.709-0.374,6.438-3.714,6.064-7.423l-6.752-66.994C392.772,203.959,389.432,201.23,385.723,201.604z"/>
		</g>
		<path style="fill:#FFB573;" d="M404.019,222.148l-3.097-1.352l-7.277,1.866c-0.836,0.215-1.577,0.703-2.103,1.387l-1.538,2
			c-0.703,0.914-0.65,2.201,0.128,3.054l1.744,1.912c0.867,0.95,2.332,1.04,3.308,0.202l3.95-3.391
			C399.133,227.826,403.871,225.548,404.019,222.148z"/>
		<path style="fill:#FFB573;" d="M340.886,209.661l3.223-0.408c0.888-0.112,1.598-0.791,1.749-1.673l0.44-2.557
			c0.224-1.301-0.833-2.468-2.15-2.373l-3.758,0.27c-1.092,0.078-1.926,1.007-1.887,2.1l0.095,2.694
			C338.641,208.91,339.7,209.811,340.886,209.661z"/>
	</g>
	<path style="fill:#263238;" d="M391,136.167c-7.944,4-21.889,2.167-21.889,2.167S376.889,125.611,391,136.167z"/>
</g>
<g id="Character_2">
	<g>
		<polygon style="fill:#7F3E3B;" points="251.283,389.893 247.287,410.66 237.186,408.216 241.183,387.449 		"/>
		<path style="fill:#263238;" d="M237.505,403.978l11.232,2.437c0.368,0.081,0.606,0.402,0.571,0.772l-0.776,8.249
			c-0.08,0.855-0.962,1.489-1.808,1.289c-3.53-0.836-4.589-1.353-9.05-2.33c-5.216-1.142-7.066-0.834-13.183-2.174
			c-3.699-0.81-3.532-4.687-1.876-4.698c5.242-0.034,9.795-1.655,12.495-3.332C235.818,403.753,236.728,403.808,237.505,403.978z"/>
		<polygon style="opacity:0.2;" points="251.289,389.9 249.227,400.604 239.122,398.159 241.184,387.455 		"/>
		<path style="fill:#263238;" d="M268.856,309.9c11.85-34.857,21.235-75.973,21.235-75.973l-33.804-2.133
			c0,0-4.98,53.376-7.575,77.983c-2.701,25.585-11.097,83.338-11.097,83.338l15.25,3.09
			C252.865,396.204,267.172,341.797,268.856,309.9z"/>
		<path style="opacity:0.2;fill:#263238;" d="M274.5,253.301l8.203,10.14c-2.089,7.829-4.532,16.628-7.216,25.621
			C272.927,270.071,274.5,253.301,274.5,253.301z"/>
		<g>
			<path style="fill:#263238;" d="M237.843,395.257l13.981,3.062c0.575,0.126,1.153-0.199,1.343-0.756l1.546-4.51
				c0.222-0.648-0.164-1.346-0.831-1.503l-15.176-3.568c-0.695-0.163-1.371,0.335-1.421,1.046l-0.352,5.016
				C236.895,394.618,237.282,395.134,237.843,395.257z"/>
			<path style="opacity:0.1;fill:#FFFFFF;" d="M237.843,395.257l13.981,3.062c0.575,0.126,1.153-0.199,1.343-0.756l1.546-4.51
				c0.222-0.648-0.164-1.346-0.831-1.503l-15.176-3.568c-0.695-0.163-1.371,0.335-1.421,1.046l-0.352,5.016
				C236.895,394.618,237.282,395.134,237.843,395.257z"/>
		</g>
		<polygon style="fill:#7F3E3B;" points="306.879,389.173 307.507,410.601 297.258,410.456 296.63,389.028 		"/>
		<path style="fill:#263238;" d="M297.013,406.063l10.896,0.158c0.377,0.006,0.673,0.273,0.713,0.643l0.877,8.239
			c0.091,0.854-0.647,1.651-1.516,1.622c-3.626-0.119-4.766-0.415-9.332-0.486c-5.339-0.084-6.495,0.585-12.756,0.487
			c-3.786-0.059-4.392-3.892-2.771-4.232c5.13-1.074,9.271-3.567,11.585-5.746C295.315,406.177,296.217,406.05,297.013,406.063z"/>
		<polygon style="opacity:0.2;" points="306.886,389.178 307.207,400.224 296.954,400.079 296.633,389.034 		"/>
		<path style="fill:#263238;" d="M304.327,309.195c-2.894-36.677-0.445-56.456-4.707-74.667l-30.764-1.908
			c0,0,9.55,53.897,14.825,78.284c5.295,24.482,10.938,83.598,10.938,83.598l15.122,0.186
			C309.741,394.688,311.591,337.805,304.327,309.195z"/>
		<g>
			<path style="fill:#263238;" d="M294.664,397.216l14.302,0.225c0.617,0.01,1.133-0.466,1.174-1.081l0.314-4.724
				c0.044-0.654-0.464-1.214-1.12-1.234l-15.575-0.484c-0.742-0.023-1.314,0.648-1.173,1.377l0.959,4.982
				C293.648,396.815,294.116,397.207,294.664,397.216z"/>
			<path style="opacity:0.1;fill:#FFFFFF;" d="M294.664,397.216l14.302,0.225c0.617,0.01,1.133-0.466,1.174-1.081l0.314-4.724
				c0.044-0.654-0.464-1.214-1.12-1.234l-15.575-0.484c-0.742-0.023-1.314,0.648-1.173,1.377l0.959,4.982
				C293.648,396.815,294.116,397.207,294.664,397.216z"/>
		</g>
		<path style="fill:#7F3E3B;" d="M267.871,176.205c-1.185,2.553-2.406,4.813-3.748,7.148c-1.342,2.305-2.755,4.583-4.317,6.807
			c-1.552,2.233-3.229,4.424-5.155,6.552c-1.965,2.127-4.046,4.229-7.176,6.074l-0.346,0.204c-1.24,0.731-2.691,0.843-3.963,0.438
			c-1.943-0.627-3.837-1.338-5.682-2.102c-1.849-0.757-3.65-1.601-5.423-2.471c-1.766-0.89-3.505-1.817-5.205-2.811
			c-1.706-1.006-3.352-2.025-5.012-3.212c-1.39-0.994-1.71-2.927-0.716-4.317c0.756-1.057,2.055-1.496,3.246-1.208l0.11,0.028
			c1.787,0.438,3.631,0.954,5.437,1.428l5.413,1.427c1.789,0.488,3.587,0.9,5.356,1.338c1.773,0.433,3.54,0.784,5.278,1.146
			l-4.309,0.642c1.203-0.868,2.684-2.502,4.043-4.212c1.363-1.762,2.683-3.699,3.956-5.703c1.258-2.018,2.501-4.088,3.684-6.207
			c1.18-2.089,2.377-4.314,3.439-6.333l0.061-0.115c1.583-3.008,5.305-4.163,8.313-2.58
			C268.068,169.7,269.236,173.252,267.871,176.205z"/>
		<g>
			<path style="fill:#407BFF;" d="M270.33,158.73c-11.941,1.359-20.977,19.849-20.977,19.849l12.321,13.113
				c0,0,5.488-6.547,11.384-14.815C279.481,167.872,279.776,157.656,270.33,158.73z"/>
		</g>
		<path style="fill:#FFFFFF;" d="M268.856,161.497c4.592-1.63,25.151,1.003,25.151,1.003c-4.02,5.16-7.339,47.885-7.709,72.447
			c-4.365,0.6-21.124-0.546-25.009-1.447C261.802,223.858,265.823,178.645,268.856,161.497z"/>
		<g>
			<path style="fill:#407BFF;" d="M255.587,174.463c1.077-9.202,8.943-16.051,18.209-16.061c8.107-0.009,17.444,1.073,25.559,2.818
				c5.494,1.181,8.932,6.664,7.629,12.13c-6.333,26.554-4.661,51.746-6.354,63.457c0,0-8.133,3.407-18.839,3.047
				c0,0,0.146-10.115,1.556-27.186c1.12-13.569,3.139-45.475,7.274-50.781c0,0-14.836-2.018-19.428-0.388
				c-3.406,19.253-5.913,77.565-5.913,77.575c-7.257-0.518-10.675-4.558-10.572-5.764
				C253.258,209.677,253.969,188.286,255.587,174.463z"/>
		</g>
		<path style="fill:#7F3E3B;" d="M291.165,144.928c-1.384,4.009-2.996,11.087-0.424,15.074c0.527,0.817,0.302,1.769-0.628,2.281
			c-3.28,1.805-7.495,3.443-13.649,2.94c-6.449-0.528-5.976-3.431-4.347-5.326c0.344-0.4,0.886-0.685,1.518-0.76
			c6.095-0.731,6.16-4.401,5.277-7.96L291.165,144.928z"/>
		<path style="opacity:0.2;" d="M286.17,147.478l-7.252,3.695c0.222,0.879,0.379,1.764,0.396,2.609
			c2.631-0.001,6.378-1.77,6.81-3.798C286.339,148.973,286.356,147.98,286.17,147.478z"/>
		<path style="fill:#263238;" d="M281.496,131.027c-0.272,3.608-2.677,6.369-5.371,6.165c-2.694-0.203-4.657-3.293-4.384-6.902
			c0.272-3.608,2.677-6.369,5.371-6.165C279.805,124.328,281.768,127.418,281.496,131.027z"/>
		<path style="fill:#7F3E3B;" d="M295.088,133.996c-1.337,7.898-1.726,12.587-6.109,16.252c-6.593,5.512-15.835,0.857-16.842-7.274
			c-0.906-7.318,1.433-19.005,9.416-21.363C289.417,119.288,296.425,126.098,295.088,133.996z"/>
		<path style="fill:#263238;" d="M293.373,140.667c-0.098-0.023-0.223-0.125-0.33-0.066c-3.586,1.995-4.739-2.301-4.518-5.157
			c0.139-1.792,1.075-3.777,2.641-4.889c-3.876,0.445-7.632-2.055-7.699-4.389c-4.288,1.889-9.455,2.055-11.788-2
			c-2.333-4.056,0.998-9.222,5.444-7.833c-1.803-3.222,5.806-9.667,13.779-0.167c0.25-6.889,11.389-0.042,9.555,6.778
			c5.167,1.778,9.583,11.575,0.833,13.667C300.706,145.694,293.373,140.667,293.373,140.667z"/>
		<path style="fill:#7F3E3B;" d="M297.587,143.148c-1.367,1.657-3.244,2.554-4.839,2.727c-2.399,0.26-2.928-2.172-1.698-4.391
			c1.106-1.997,3.688-4.54,5.826-3.768C298.982,138.475,299.151,141.253,297.587,143.148z"/>
		<path style="fill:#263238;" d="M283.646,134.594c-0.057,0.652-0.449,1.147-0.876,1.106c-0.426-0.041-0.726-0.603-0.668-1.256
			c0.057-0.652,0.449-1.147,0.876-1.106C283.404,133.38,283.703,133.942,283.646,134.594z"/>
		<path style="fill:#263238;" d="M275.897,133.727c-0.057,0.652-0.449,1.147-0.876,1.106c-0.426-0.041-0.726-0.603-0.668-1.256
			c0.057-0.652,0.449-1.147,0.876-1.106C275.655,132.513,275.955,133.075,275.897,133.727z"/>
		<path style="fill:#630F0F;" d="M278.925,134.104c0,0-1.814,3.618-3.607,5.275c1.06,1.189,3.065,0.887,3.065,0.887L278.925,134.104
			z"/>
		<path style="fill:#263238;" d="M280.395,143.447c2.508,0.156,3.964-1.316,4.031-1.386c0.073-0.076,0.071-0.198-0.005-0.272
			c-0.076-0.074-0.198-0.073-0.271,0.003c-0.017,0.017-1.716,1.726-4.53,1.166c-0.104-0.02-0.205,0.047-0.225,0.151
			c-0.02,0.104,0.049,0.206,0.153,0.226C279.842,143.394,280.125,143.43,280.395,143.447z"/>
		<path style="fill:#263238;" d="M286.206,133.028c0.064,0.007,0.13-0.002,0.192-0.03c0.194-0.084,0.282-0.311,0.196-0.507
			c-0.86-1.956-2.608-2.276-2.682-2.288c-0.21-0.036-0.407,0.105-0.441,0.315c-0.034,0.209,0.108,0.408,0.316,0.444l0,0
			c0.058,0.01,1.417,0.274,2.104,1.835C285.95,132.93,286.073,133.014,286.206,133.028z"/>
		<path style="fill:#263238;" d="M272.652,130.541c0.12,0.034,0.253,0.009,0.354-0.078c1.279-1.106,2.616-0.745,2.673-0.729
			c0.204,0.058,0.415-0.06,0.472-0.264s-0.06-0.416-0.264-0.476c-0.074-0.02-1.783-0.503-3.385,0.883
			c-0.16,0.138-0.177,0.382-0.038,0.544C272.517,130.48,272.582,130.521,272.652,130.541z"/>
		<g>
			<path style="fill:#7F3E3B;" d="M309.384,172.811c0.644,1.267,1.177,2.364,1.699,3.558c0.524,1.172,1.03,2.344,1.517,3.525
				c0.988,2.357,1.866,4.757,2.686,7.188c1.633,4.858,2.949,9.874,3.818,15.07l0.279,1.969l0.134,0.985l0.033,0.246l0.041,0.439
				c0.025,0.319,0.044,0.644,0.052,0.957c-0.047,2.301-0.56,3.861-1.074,5.318c-1.059,2.852-2.378,5.161-3.776,7.393
				c-1.403,2.215-2.896,4.297-4.478,6.294c-1.584,2.007-3.205,3.903-5.018,5.768c-1.187,1.22-3.138,1.248-4.358,0.061
				c-0.973-0.947-1.187-2.379-0.632-3.54l0.041-0.083c2.069-4.308,4.261-8.667,6.011-12.919c0.445-1.06,0.851-2.116,1.199-3.149
				c0.364-1.021,0.674-2.032,0.868-2.938c0.196-0.882,0.242-1.742,0.176-1.9c-0.015,0.008-0.026,0.028-0.027,0.042
				c-0.005-0.01,0.01,0.055-0.007-0.018l-0.047-0.206l-0.188-0.826l-0.379-1.649c-1.121-4.408-2.55-8.833-4.221-13.207
				c-0.803-2.197-1.714-4.365-2.594-6.542c-0.445-1.086-0.908-2.167-1.382-3.234l-1.394-3.115l-0.082-0.182
				c-1.389-3.102,0-6.742,3.102-8.13C304.389,168.637,307.905,169.912,309.384,172.811z"/>
			<g>
				<path style="fill:#407BFF;" d="M300.381,161.498c13.316,3.358,17.015,20.389,17.015,20.389l-16.538,11.865
					c0,0-4.099-4.29-5.334-14.37C294.934,174.569,297.684,161.372,300.381,161.498z"/>
			</g>
			<path style="fill:#7F3E3B;" d="M302.433,226.035l-7.699,2.872l5.894,7.898c0,0,6.656-3.447,5.396-7.279L302.433,226.035z"/>
			<g>
				<path style="fill:#407BFF;" d="M288.955,230.042c-2.152-0.363-4.264-0.132-6.179,0.563l3.825-22.706
					c0.619-3.676-1.882-7.19-5.558-7.809l-66.398-11.185c-3.676-0.619-7.19,1.882-7.809,5.558l-3.825,22.705
					c1.915-0.694,4.027-0.925,6.179-0.562c6.656,1.121,11.143,7.426,10.022,14.083c-1.121,6.656-7.426,11.143-14.083,10.022
					c-2.152-0.363-4.072-1.273-5.654-2.555l-3.825,22.705c-0.619,3.676,1.882,7.19,5.558,7.809l66.398,11.184
					c3.676,0.619,7.19-1.882,7.809-5.557l3.825-22.706c1.582,1.283,3.502,2.193,5.654,2.555c6.656,1.121,12.961-3.366,14.083-10.022
					C300.099,237.469,295.612,231.164,288.955,230.042z"/>
				<path style="opacity:0.6;fill:#FFFFFF;" d="M288.955,230.042c-2.152-0.363-4.264-0.132-6.179,0.563l3.825-22.706
					c0.619-3.676-1.882-7.19-5.558-7.809l-66.398-11.185c-3.676-0.619-7.19,1.882-7.809,5.558l-3.825,22.705
					c1.915-0.694,4.027-0.925,6.179-0.562c6.656,1.121,11.143,7.426,10.022,14.083c-1.121,6.656-7.426,11.143-14.083,10.022
					c-2.152-0.363-4.072-1.273-5.654-2.555l-3.825,22.705c-0.619,3.676,1.882,7.19,5.558,7.809l66.398,11.184
					c3.676,0.619,7.19-1.882,7.809-5.557l3.825-22.706c1.582,1.283,3.502,2.193,5.654,2.555c6.656,1.121,12.961-3.366,14.083-10.022
					C300.099,237.469,295.612,231.164,288.955,230.042z"/>
			</g>
			<path style="fill:#7F3E3B;" d="M291.128,236.644l2.533,2.42c1.008,0.963,2.566,1.055,3.68,0.216l3.287-2.474l-5.894-7.898
				l-3.655,3.668C289.952,233.706,289.974,235.542,291.128,236.644z"/>
			<path style="fill:#7F3E3B;" d="M217.038,190.994l0.927-3.415c0.198-0.729,1.035-1.295,1.96-1.324l0,0
				c1.35-0.042,2.657,0.161,3.822,0.591l5.202,1.923l-0.247,2.117c-0.213,1.825-2.243,3.346-4.545,3.415
				c-2.327,0.07-4.59-0.495-4.59-0.495l-0.556-0.116C217.538,193.381,216.701,192.237,217.038,190.994z"/>
		</g>
	</g>
</g>
<g id="Character_1_2_">
	<g>
		<path style="fill:#263238;" d="M135.087,143.935c3.333-3.879,8.345-13.926-1.081-17.768c-6.95-2.833-21.697-1.389-30.169,11.805
			c-5.792,1.958-7.5,14.877,5.875,17.584C123.087,158.264,135.087,143.935,135.087,143.935z"/>
		<g>
			<polygon style="fill:#FFC3BD;" points="165.303,392.082 150.019,393.351 152.611,411.312 165.384,410.272 			"/>
			<polygon style="opacity:0.2;" points="165.3,392.089 150.011,393.357 151.465,403.415 165.348,402.275 			"/>
		</g>
		<path style="fill:#407BFF;" d="M136.094,339.206c-5.963-22.98-21.544-50.374-11.691-72.502l42.809-0.135
			c0,0,1.06,45.55,1.355,67.045c0.309,22.349-1.616,64.586-1.616,64.586l-17.511,1.329C149.439,399.529,137.491,365,136.094,339.206
			z"/>
		<path style="fill:#263238;" d="M148.616,400.216l18.926-1.389c0.332-0.024,0.594-0.291,0.613-0.622l0.409-7.019
			c0.024-0.416-0.336-0.75-0.749-0.696l-20.997,2.789c-0.403,0.054-0.664,0.455-0.548,0.845l1.662,5.619
			C148.02,400.042,148.305,400.239,148.616,400.216z"/>
		<path style="opacity:0.2;" d="M124.254,288.47c-0.2,5.311,0.08,10.771,0.66,16.271c2.09,7.229,4.76,14.47,7.16,21.49
			C135.214,306.35,135.223,283.18,124.254,288.47z"/>
		<g>
			<polygon style="fill:#FFC3BD;" points="108.743,393.201 93.397,393.348 93.379,411.451 106.201,411.348 			"/>
			<path style="fill:#263238;" d="M92.171,408.672c0.048-0.423,0.537-0.743,0.903-0.597c3.845,1.527,11.141,0.357,13.905-0.173
				c0.676-0.13,1.293,0.024,1.772,0.364c2.942,2.086,7.272,3.359,7.272,3.359s0.989,2.611,0.392,4.612l-25.859-0.013
				C90.556,416.224,91.779,412.165,92.171,408.672z"/>
			<path style="fill:#263238;" d="M150.921,408.672c0.048-0.423,0.537-0.743,0.903-0.597c3.845,1.527,11.141,0.357,13.905-0.173
				c0.676-0.13,1.293,0.024,1.772,0.364c2.942,2.086,10.777,3.359,10.777,3.359s0.989,2.611,0.392,4.612l-29.364-0.013
				C149.306,416.224,150.529,412.165,150.921,408.672z"/>
			<polygon style="opacity:0.2;" points="108.739,393.207 93.388,393.353 93.381,403.491 107.318,403.37 			"/>
		</g>
		<path style="fill:#407BFF;" d="M91.237,331.77c-2.077-23.235-8.597-54.518-1.195-65.201h50.095c0,0-10.205,46.322-14.394,67.759
			c-4.352,22.289-16.86,65.096-16.86,65.096l-16.593,0.044C92.29,399.467,85.956,358.286,91.237,331.77z"/>
		<path style="opacity:0.2;fill:#FFFFFF;" d="M94.253,394.722c-0.216,0-0.415-0.141-0.479-0.358
			c-1.196-4.023-1.026-49.952,1.979-62.531c-0.032-1.659-0.352-4.927-0.754-9.05c-1.366-13.976-3.908-39.992-0.118-54.755
			c0.069-0.268,0.344-0.428,0.609-0.36c0.267,0.069,0.428,0.341,0.36,0.609c-3.747,14.593-1.216,40.494,0.144,54.409
			c0.411,4.198,0.734,7.514,0.76,9.194c0,0.042-0.004,0.084-0.014,0.125c-2.878,11.909-3.157,58.203-2.006,62.073
			c0.079,0.265-0.072,0.543-0.337,0.622C94.348,394.716,94.3,394.722,94.253,394.722z"/>
		<path style="fill:#263238;" d="M91.139,400.092h18.796c0.311,0,0.572-0.216,0.628-0.519l1.238-6.673
			c0.079-0.426-0.271-0.825-0.706-0.806L90.637,393c-0.363,0.016-0.635,0.323-0.608,0.687l0.424,5.767
			C90.48,399.81,90.783,400.092,91.139,400.092z"/>
		<g>
			<path style="fill:#FFC3BD;" d="M157.159,185.657c1.016,3.966,1.922,7.956,2.807,11.952c0.864,4,1.733,7.999,2.514,12.018
				l1.195,6.022l1.122,6.039c0.769,4.021,1.453,8.061,2.152,12.098l-1.629-3.649c0.217,0.557,0.393,1.167,1.33,1.847
				c0.884,0.667,2.413,1.346,4.236,1.751c1.829,0.451,3.946,0.695,6.163,0.808c1.108,0.054,2.25,0.094,3.397,0.081
				c0.577,0.008,1.154,0,1.729-0.015c0.552,0.004,1.213-0.032,1.617-0.005l1.418,0.095c3.045,0.203,5.348,2.836,5.145,5.88
				c-0.13,1.942-1.281,3.601-2.864,4.482c-0.807,0.44-1.37,0.775-2.049,1.125c-0.657,0.33-1.316,0.649-1.984,0.952
				c-1.34,0.584-2.707,1.131-4.125,1.591c-1.418,0.449-2.875,0.869-4.391,1.181c-1.519,0.299-3.092,0.529-4.734,0.661
				c-1.637,0.129-3.359,0.088-5.15-0.078c-1.788-0.165-3.669-0.511-5.581-1.181c-1.907-0.655-3.862-1.555-5.706-2.82
				c-1.848-1.254-3.504-2.864-4.919-4.627c-0.623-0.776-1.061-1.641-1.319-2.542l-0.31-1.107c-1.109-3.939-2.232-7.876-3.271-11.831
				l-1.589-5.926l-1.517-5.941c-1.026-3.958-1.964-7.935-2.908-11.912c-0.922-3.981-1.823-7.967-2.615-11.978l-0.004-0.022
				c-1.198-6.068,2.751-11.959,8.819-13.157C149.992,176.294,155.686,179.955,157.159,185.657z"/>
		</g>
		<path style="fill:#FFC3BD;" d="M183.085,235.579l0.212,6.46c2.614,6.269,10.092,1.514,10.092,1.514l4.519-0.834
			c1.532-0.283,2.622-1.81,2.577-3.608l-0.114-4.518c-0.052-2.059-1.561-3.724-3.345-3.692l-4.009,0.074
			c-1.167,0.021-2.31,0.331-3.328,0.902L183.085,235.579z"/>
		<g>
			<path style="fill:#263238;" d="M149.503,174.522c9.197,4.835,15.204,21.922,15.204,21.922
				c-1.941,7.961-9.754,22.59-16.996,22.495c0,0-10.635-13.709-11.786-23.629C134.533,183.32,130.897,164.741,149.503,174.522z"/>
		</g>
		<path style="fill:#263238;" d="M140.994,171.682c-12.65-1.319-29.544-1.161-42.652,0.678c-8.182,1.148-13.958,6.24-12.966,22.997
			c2.011,33.992-1.098,60.499,3.228,72.721c0,0,62.914,18.03,80.854,0.752c4.362-40.91-10.313-74.874-17.013-89.014
			C150.303,175.295,145.971,172.201,140.994,171.682z"/>
		<path style="fill:#FFC3BD;" d="M136.268,175.399c-1.633-1.6-3.335-0.669-4.127-3.075c-0.352-1.733-0.1-3.546,0.898-5.539
			l-19.411-10.473c0.382,7.142,0.669,12.781-2.494,15.618c-0.921,5.323,8.95,10.633,22.202,10.709
			C141.754,182.687,138.618,177.701,136.268,175.399z"/>
		<path style="opacity:0.2;" d="M132.754,167.391l-15.326-3.834c3.87,6.093,10.846,9.426,14.594,7.953
			C131.905,170.201,132.127,168.846,132.754,167.391z"/>
		<path style="fill:#FFC3BD;" d="M126.409,132.447c-10.143-2.243-18.898,6.174-16.935,15.356c1.963,9.182,3.509,15.376,9.859,18.502
			c12.618,6.212,18.779,0.22,19.809-9.378C140.069,148.287,136.703,134.723,126.409,132.447z"/>
		<path style="opacity:0.2;" d="M124.421,148.753c0,0-2.07-0.544-3.508,0.511C122.871,149.368,124.421,148.753,124.421,148.753z"/>
		<path style="opacity:0.2;" d="M124.487,149.597c0,0-1.951-0.093-2.964,1.243C123.271,150.526,124.487,149.597,124.487,149.597z"/>
		<path style="fill:#263238;" d="M110.754,155.556c5.667,1.277,8.023-1.564,8.023-4.751c0-3.376-3.189-9.083-6.689-10.139
			c1.249-7.494,21.919,3,19.956-7.389c0,0-0.567-1.778-5.9-2.778c-5.333-1-19.611,2.222-18.611,12.889
			S110.754,155.556,110.754,155.556z"/>
		<path style="fill:#263238;" d="M103.531,138.5c2.333-4.167,1.111-9,1.111-9S110.865,133.611,103.531,138.5z"/>
		<path style="fill:#263238;" d="M129.611,158.407c0.401-0.028,0.822-0.088,1.262-0.188c0.137-0.031,0.223-0.167,0.192-0.303
			c-0.031-0.137-0.168-0.229-0.303-0.191c-3.699,0.831-6.006-1.355-6.029-1.377c-0.101-0.098-0.261-0.096-0.359,0.005
			c-0.097,0.1-0.095,0.261,0.005,0.359C124.469,156.8,126.4,158.632,129.611,158.407z"/>
		<path style="fill:#FFC3BD;" d="M107.164,156.008c1.383,1.918,3.529,3.01,5.459,3.28c2.904,0.405,3.991-2.29,2.879-4.829
			c-1.001-2.286-3.718-5.251-6.486-4.49C106.29,150.717,105.582,153.815,107.164,156.008z"/>
		<path style="fill:#263238;" d="M126.074,148.851c0.114,0.811,0.637,1.405,1.167,1.325c0.53-0.08,0.868-0.802,0.754-1.613
			c-0.114-0.811-0.637-1.405-1.167-1.325C126.297,147.317,125.96,148.04,126.074,148.851z"/>
		<path style="fill:#263238;" d="M135.604,147.574c0.114,0.811,0.637,1.405,1.167,1.325c0.53-0.079,0.868-0.802,0.753-1.613
			c-0.114-0.811-0.637-1.405-1.167-1.325C135.827,146.041,135.49,146.763,135.604,147.574z"/>
		<path style="fill:#ED847E;" d="M132.042,148.636l0.457,6.867c0,0,2.249,0.385,3.471-0.911
			C134.972,151.132,132.042,148.636,132.042,148.636z"/>
		<path style="fill:#263238;" d="M122.934,146.988c-0.078,0.02-0.161,0.02-0.244-0.003c-0.255-0.07-0.404-0.336-0.332-0.593
			c0.72-2.576,2.829-3.281,2.918-3.31c0.254-0.082,0.523,0.058,0.602,0.312c0.079,0.253-0.061,0.524-0.313,0.606l0,0
			c-0.069,0.023-1.708,0.59-2.282,2.646C123.235,146.822,123.097,146.947,122.934,146.988z"/>
		<path style="fill:#263238;" d="M138.729,143.934c-0.156,0.008-0.312-0.059-0.411-0.193c-1.253-1.706-2.986-1.636-3.059-1.633
			c-0.265,0.014-0.49-0.189-0.503-0.454c-0.013-0.264,0.19-0.491,0.454-0.508c0.096-0.004,2.315-0.118,3.885,2.019
			c0.157,0.213,0.11,0.515-0.105,0.674C138.911,143.899,138.82,143.93,138.729,143.934z"/>
		<g>
			<path style="fill:#407BFF;" d="M197.027,209.325c-2.176,0.172-4.168,0.909-5.857,2.048l-1.812-22.954
				c-0.293-3.717-3.574-6.517-7.29-6.223l-67.125,5.298c-3.716,0.293-6.517,3.574-6.223,7.29l5.299,67.125
				c0.293,3.716,3.574,6.516,7.29,6.223l67.125-5.298c3.716-0.293,6.517-3.574,6.223-7.29l-1.812-22.954
				c1.847,0.859,3.93,1.275,6.106,1.104c6.729-0.531,11.754-6.417,11.223-13.146C209.641,213.818,203.756,208.794,197.027,209.325z"
				/>
			<path style="fill:#FFC3BD;" d="M99.662,200.146l-1.055,1.843l-1.147,2.064c-0.744,1.399-1.503,2.797-2.192,4.219
				c-1.413,2.825-2.655,5.692-3.714,8.493c-0.532,1.404-0.979,2.797-1.356,4.161c-0.408,1.361-0.724,2.694-0.937,3.963
				c-0.445,2.565-0.492,4.82-0.211,6.601l-2.302-4.013c0.601,0.928,1.88,2.233,3.443,3.475c1.562,1.252,3.381,2.536,5.324,3.732
				c1.93,1.237,3.986,2.421,6.083,3.612l3.184,1.777c1.046,0.595,2.194,1.197,3.146,1.773l0.481,0.291
				c2.675,1.62,3.53,5.102,1.91,7.777c-1.078,1.781-2.991,2.754-4.932,2.729c-1.519-0.023-2.821-0.1-4.216-0.216
				c-1.366-0.134-2.735-0.283-4.096-0.494c-2.727-0.413-5.443-0.996-8.187-1.76c-2.728-0.807-5.498-1.742-8.304-3.093
				c-2.803-1.348-5.693-3.042-8.605-5.799c-0.953-0.902-1.626-1.988-2.017-3.151l-0.285-0.862
				c-1.701-5.118-2.028-10.159-1.657-14.698c0.32-4.586,1.267-8.795,2.482-12.787c1.192-4.001,2.739-7.749,4.444-11.371
				c0.873-1.802,1.766-3.582,2.759-5.315c0.491-0.869,0.994-1.737,1.522-2.599l0.82-1.299l0.433-0.665l0.517-0.763
				c3.468-5.114,10.425-6.448,15.539-2.98c4.866,3.3,6.31,9.758,3.451,14.782L99.662,200.146z"/>
			<g>
				<path style="fill:#263238;" d="M91.848,174.524c-16.574,8.859-22.753,28.646-22.753,28.646
					c3.28,6.248,23.056,13.022,30.493,11.163c0,0,7.131-12.979,8.6-24.619C109.548,178.938,101.56,169.332,91.848,174.524z"/>
			</g>
		</g>
		<path style="fill:#FFC3BD;" d="M103.454,242.955l0.34,6.455c2.737,6.216,10.12,1.314,10.12,1.314l4.502-0.923
			c1.526-0.313,2.586-1.861,2.505-3.658l-0.203-4.514c-0.092-2.058-1.634-3.693-3.417-3.625l-4.007,0.153
			c-1.166,0.045-2.303,0.377-3.309,0.967L103.454,242.955z"/>
	</g>
</g>
</svg>
